<?xml version="1.0" encoding="utf-8"?>
<svg version="1.1" id="Layer_1" xmlns="http://www.w3.org/2000/svg" xmlns:xlink="http://www.w3.org/1999/xlink" x="0px" y="0px"
	 viewBox="-287 289 24 24" style="enable-background:new -287 289 24 24;" xml:space="preserve">
<style type="text/css">
	.st0{fill:none;}
</style>
<path class="st0" d="M-287,289h24v24h-24V289z"/>
<path d="M-271,306.4l-0.3,0.2c-1.5,1.1-3.3,1.7-5.2,1.7c-4.9,0-8.9-4-8.9-8.9s4-8.9,8.9-8.9s8.9,4,8.9,8.9c0,1.9-0.6,3.7-1.7,5.2
	l-0.2,0.3l4.5,4.5l-1.4,1.4L-271,306.4z M-276.6,292.5c-3.8,0-6.9,3.1-6.9,6.9s3.1,6.9,6.9,6.9s6.9-3.1,6.9-6.9
	S-272.8,292.5-276.6,292.5z"/>
<rect x="-279.1" y="298.4" width="5.1" height="2"/>
</svg>
